<mxfile host="65bd71144e">
    <diagram id="4Tv8WOUvbLiwG3VG_nq-" name="Page-1">
        <mxGraphModel dx="1505" dy="765" grid="1" gridSize="10" guides="1" tooltips="1" connect="1" arrows="1" fold="1" page="1" pageScale="1" pageWidth="850" pageHeight="1100" math="0" shadow="0">
            <root>
                <mxCell id="0"/>
                <mxCell id="1" parent="0"/>
                <mxCell id="10" style="edgeStyle=none;html=1;exitX=0.5;exitY=1;exitDx=0;exitDy=0;exitPerimeter=0;entryX=0.5;entryY=0;entryDx=0;entryDy=0;fontColor=#FFFFFF;labelBackgroundColor=none;fontSize=15;" edge="1" parent="1" source="2" target="4">
                    <mxGeometry relative="1" as="geometry"/>
                </mxCell>
                <mxCell id="2" value="start" style="strokeWidth=2;html=1;shape=mxgraph.flowchart.terminator;whiteSpace=wrap;fontColor=#FFFFFF;labelBackgroundColor=none;fontSize=15;" vertex="1" parent="1">
                    <mxGeometry x="378" y="90" width="100" height="60" as="geometry"/>
                </mxCell>
                <mxCell id="3" value="end" style="strokeWidth=2;html=1;shape=mxgraph.flowchart.terminator;whiteSpace=wrap;fontColor=#FFFFFF;labelBackgroundColor=none;fontSize=15;" vertex="1" parent="1">
                    <mxGeometry x="375" y="720" width="100" height="60" as="geometry"/>
                </mxCell>
                <mxCell id="11" style="edgeStyle=none;html=1;entryX=0.5;entryY=0;entryDx=0;entryDy=0;fontColor=#FFFFFF;labelBackgroundColor=none;fontSize=15;" edge="1" parent="1" source="4" target="6">
                    <mxGeometry relative="1" as="geometry"/>
                </mxCell>
                <mxCell id="4" value="&lt;div style=&quot;font-family: consolas, &amp;quot;courier new&amp;quot;, monospace; font-size: 15px; line-height: 19px;&quot;&gt;&lt;span style=&quot;font-size: 15px;&quot;&gt;f_name&lt;/span&gt;&lt;/div&gt;" style="html=1;strokeWidth=2;shape=manualInput;whiteSpace=wrap;rounded=1;size=26;arcSize=11;fontColor=#FFFFFF;labelBackgroundColor=none;fontSize=15;" vertex="1" parent="1">
                    <mxGeometry x="373" y="180" width="110" height="70" as="geometry"/>
                </mxCell>
                <mxCell id="13" style="edgeStyle=none;html=1;entryX=0.5;entryY=0;entryDx=0;entryDy=0;fontColor=#FFFFFF;labelBackgroundColor=none;fontSize=15;" edge="1" parent="1" source="6" target="7">
                    <mxGeometry relative="1" as="geometry"/>
                </mxCell>
                <mxCell id="6" value="&lt;div style=&quot;font-family: consolas, &amp;quot;courier new&amp;quot;, monospace; font-size: 15px; line-height: 19px;&quot;&gt;&lt;span style=&quot;font-size: 15px;&quot;&gt;l_name&lt;/span&gt;&lt;/div&gt;" style="html=1;strokeWidth=2;shape=manualInput;whiteSpace=wrap;rounded=1;size=26;arcSize=11;fontColor=#FFFFFF;labelBackgroundColor=none;fontSize=15;" vertex="1" parent="1">
                    <mxGeometry x="373" y="280" width="110" height="70" as="geometry"/>
                </mxCell>
                <mxCell id="14" style="edgeStyle=none;html=1;entryX=0.5;entryY=0;entryDx=0;entryDy=0;fontColor=#FFFFFF;labelBackgroundColor=none;fontSize=15;" edge="1" parent="1" source="7" target="8">
                    <mxGeometry relative="1" as="geometry"/>
                </mxCell>
                <mxCell id="7" value="&lt;div style=&quot;font-family: consolas, &amp;quot;courier new&amp;quot;, monospace; font-size: 15px; line-height: 19px;&quot;&gt;&lt;span style=&quot;font-size: 15px;&quot;&gt;s_id&lt;/span&gt;&lt;/div&gt;" style="html=1;strokeWidth=2;shape=manualInput;whiteSpace=wrap;rounded=1;size=26;arcSize=11;fontColor=#FFFFFF;labelBackgroundColor=none;fontSize=15;" vertex="1" parent="1">
                    <mxGeometry x="370" y="380" width="110" height="70" as="geometry"/>
                </mxCell>
                <mxCell id="15" style="edgeStyle=none;html=1;entryX=0.5;entryY=0;entryDx=0;entryDy=0;entryPerimeter=0;fontColor=#FFFFFF;labelBackgroundColor=none;fontSize=15;" edge="1" parent="1" source="8" target="9">
                    <mxGeometry relative="1" as="geometry"/>
                </mxCell>
                <mxCell id="8" value="&lt;div style=&quot;font-family: consolas, &amp;quot;courier new&amp;quot;, monospace; font-size: 15px; line-height: 19px;&quot;&gt;&lt;span style=&quot;font-size: 15px;&quot;&gt;sy_login&lt;/span&gt; = (&lt;span style=&quot;font-size: 15px;&quot;&gt;f_name&lt;/span&gt;[&lt;span style=&quot;font-size: 15px;&quot;&gt;0&lt;/span&gt;:&lt;span style=&quot;font-size: 15px;&quot;&gt;3&lt;/span&gt;]) + (&lt;span style=&quot;font-size: 15px;&quot;&gt;l_name&lt;/span&gt;[&lt;span style=&quot;font-size: 15px;&quot;&gt;0&lt;/span&gt;:&lt;span style=&quot;font-size: 15px;&quot;&gt;3&lt;/span&gt;]) + (&lt;span style=&quot;font-size: 15px;&quot;&gt;s_id&lt;/span&gt;[-&lt;span style=&quot;font-size: 15px;&quot;&gt;3&lt;/span&gt;::])&lt;/div&gt;" style="rounded=1;whiteSpace=wrap;html=1;absoluteArcSize=1;arcSize=14;strokeWidth=2;fontColor=#FFFFFF;labelBackgroundColor=none;fontSize=15;" vertex="1" parent="1">
                    <mxGeometry x="335" y="490" width="180" height="70" as="geometry"/>
                </mxCell>
                <mxCell id="16" style="edgeStyle=none;html=1;entryX=0.5;entryY=0;entryDx=0;entryDy=0;entryPerimeter=0;fontColor=#FFFFFF;labelBackgroundColor=none;fontSize=15;" edge="1" parent="1" source="9" target="3">
                    <mxGeometry relative="1" as="geometry"/>
                </mxCell>
                <mxCell id="9" value="&lt;div style=&quot;font-family: consolas, &amp;quot;courier new&amp;quot;, monospace; font-size: 15px; line-height: 19px;&quot;&gt;&lt;span style=&quot;font-size: 15px;&quot;&gt;&quot;Your system login name is: &quot;&lt;/span&gt;,&lt;span style=&quot;font-size: 15px;&quot;&gt;sy_login&lt;/span&gt;&lt;/div&gt;" style="strokeWidth=2;html=1;shape=mxgraph.flowchart.display;whiteSpace=wrap;fontColor=#FFFFFF;labelBackgroundColor=none;fontSize=15;" vertex="1" parent="1">
                    <mxGeometry x="345" y="600" width="160" height="80" as="geometry"/>
                </mxCell>
            </root>
        </mxGraphModel>
    </diagram>
</mxfile>